<svg width="260" height="261" viewBox="0 0 260 261" fill="none" xmlns="http://www.w3.org/2000/svg">
<path fill-rule="evenodd" clip-rule="evenodd" d="M130 228.961C193.181 228.961 244.4 177.264 244.4 113.492C244.4 58.4016 206.177 12.3222 155.039 0.797208C214.855 12.5773 260 65.7574 260 129.58C260 202.048 201.797 260.795 130 260.795C58.203 260.795 0 202.048 0 129.58C0 65.7573 45.1447 12.577 104.961 0.797119C53.8229 12.3219 15.6 58.4015 15.6 113.492C15.6 177.264 66.8186 228.961 130 228.961Z" fill="#877986"/>
<ellipse cx="131.142" cy="149.977" rx="6.34146" ry="6.40072" fill="#877986"/>
<ellipse cx="131.142" cy="92.2422" rx="6.34146" ry="6.40071" fill="#A29BAB"/>
<ellipse cx="131.142" cy="34.5078" rx="6.34146" ry="6.40071" fill="#D4CDD2"/>
</svg>
