<svg width="50" height="59" viewBox="0 0 50 59" fill="none" xmlns="http://www.w3.org/2000/svg">
<path fill-rule="evenodd" clip-rule="evenodd" d="M25 52.2682C37.1503 52.2682 47 42.4184 47 30.2682C47 19.7711 39.6483 10.9912 29.8129 8.7962C41.3172 11.0397 50 21.1725 50 33.3333C50 47.1405 38.8071 58.3334 25 58.3334C11.1929 58.3334 0 47.1405 0 33.3333C0 21.1725 8.68282 11.0397 20.1871 8.7962C10.3517 10.9912 3 19.7711 3 30.2682C3 42.4184 12.8497 52.2682 25 52.2682Z" fill="#877986"/>
<ellipse id="dot_1" cx="25.2195" cy="37.2195" rx="1.21951" ry="1.21951" fill="#877986"/>
<circle id="dot_2" cx="25.2195" cy="26.2195" r="1.21951" fill="#A29BAB"/>
<ellipse id="dot_3" cx="25.2195" cy="15.2195" rx="1.21951" ry="1.21951" fill="#D4CDD2"/>
</svg>
