<svg class="uni_logo" width="50" height="51" viewBox="0 0 50 51" fill="none" xmlns="http://www.w3.org/2000/svg">
<path fill-rule="evenodd" clip-rule="evenodd" d="M25 44.6743C37.1503 44.6743 47 34.7326 47 22.4688C47 11.8743 39.6493 3.01281 29.8148 0.796631C41.3181 3.06186 50 13.2889 50 25.5627C50 39.4988 38.8071 50.7962 25 50.7962C11.1929 50.7962 0 39.4988 0 25.5627C0 13.2889 8.68185 3.06186 20.1852 0.796631C10.3507 3.01281 3 11.8743 3 22.4688C3 34.7326 12.8497 44.6743 25 44.6743Z" fill="#877986"/>
<ellipse cx="25.2195" cy="29.4851" rx="1.21951" ry="1.23091" fill="#877986"/>
<ellipse cx="25.2195" cy="18.3823" rx="1.21951" ry="1.23091" fill="#A29BAB"/>
<ellipse cx="25.2195" cy="7.27955" rx="1.21951" ry="1.23091" fill="#D4CDD2"/>
</svg>
