<?xml version="1.0" standalone="no"?>
<!DOCTYPE svg PUBLIC "-//W3C//DTD SVG 20010904//EN"
 "http://www.w3.org/TR/2001/REC-SVG-20010904/DTD/svg10.dtd">
<svg version="1.0" xmlns="http://www.w3.org/2000/svg"
 width="522.000000pt" height="522.000000pt" viewBox="0 0 522.000000 522.000000"
 preserveAspectRatio="xMidYMid meet">
<metadata>
Created by potrace 1.14, written by Peter Selinger 2001-2017
</metadata>
<g transform="translate(0.000000,522.000000) scale(0.100000,-0.100000)"
fill="#000000" stroke="none">
<path d="M1908 5153 c7 -3 16 -2 19 1 4 3 -2 6 -13 5 -11 0 -14 -3 -6 -6z"/>
<path d="M3315 5152 c6 -5 44 -21 85 -36 104 -37 142 -54 240 -104 88 -46 243
-137 270 -160 8 -7 49 -38 90 -70 91 -69 130 -103 234 -207 79 -79 225 -255
247 -298 7 -12 15 -24 18 -27 13 -9 88 -135 133 -220 120 -230 200 -473 242
-742 26 -163 27 -523 2 -658 -3 -14 -7 -41 -10 -60 -9 -56 -33 -175 -36 -175
-1 0 -3 -7 -5 -15 -53 -260 -223 -609 -419 -860 -92 -117 -329 -360 -353 -360
-3 0 -13 -8 -22 -18 -18 -20 -29 -28 -167 -120 -127 -85 -130 -86 -245 -143
-147 -73 -337 -142 -474 -174 -16 -4 -39 -9 -50 -12 -11 -2 -29 -6 -40 -8 -11
-2 -31 -6 -45 -9 -190 -37 -563 -43 -720 -12 -14 3 -41 8 -60 11 -19 2 -53 7
-75 11 -114 18 -369 104 -525 178 -132 62 -332 187 -426 265 -17 14 -50 42
-74 61 -106 85 -319 319 -385 422 -10 16 -72 112 -112 174 -12 19 -20 34 -16
34 3 0 -1 8 -9 18 -14 15 -42 72 -96 192 -53 118 -124 340 -139 435 -3 17 -6
35 -8 40 -44 196 -53 542 -20 770 14 98 30 179 46 239 6 23 13 48 14 58 6 29
66 201 98 278 47 115 136 282 202 380 36 54 116 163 124 170 4 3 26 30 51 60
138 168 352 349 565 477 84 50 285 153 300 153 2 0 16 5 32 12 15 6 30 12 33
13 30 7 80 28 77 31 -3 4 -74 -19 -237 -76 -19 -7 -39 -17 -44 -21 -6 -5 -18
-9 -28 -9 -10 0 -18 -4 -18 -10 0 -5 -7 -10 -15 -10 -14 0 -175 -79 -185 -91
-3 -3 -20 -12 -37 -20 -18 -8 -33 -17 -33 -21 0 -5 -5 -8 -11 -8 -6 0 -40 -20
-76 -45 -35 -25 -66 -45 -69 -45 -3 0 -10 -5 -17 -10 -7 -6 -37 -30 -67 -53
-128 -97 -280 -239 -398 -371 -106 -118 -253 -335 -345 -509 -104 -195 -213
-503 -243 -687 -3 -19 -8 -38 -9 -41 -2 -3 -7 -27 -11 -54 -3 -27 -8 -61 -10
-75 -20 -148 -27 -504 -11 -630 4 -36 9 -78 11 -95 2 -16 6 -43 9 -60 4 -16 9
-46 12 -65 3 -19 16 -75 27 -125 12 -49 22 -92 23 -95 0 -3 4 -11 8 -17 5 -7
6 -13 3 -13 -7 0 70 -221 101 -290 68 -150 109 -230 165 -323 63 -105 153
-237 185 -272 10 -11 36 -43 57 -70 62 -79 262 -275 361 -354 141 -113 287
-208 450 -291 123 -63 280 -132 330 -144 6 -2 17 -6 25 -9 30 -12 187 -55 255
-70 62 -15 97 -21 235 -42 158 -24 504 -25 650 -1 14 3 48 7 75 11 28 3 68 10
90 15 22 5 51 11 65 13 105 20 311 85 450 142 142 59 440 224 470 260 7 8 19
15 26 15 8 0 14 3 14 8 0 4 17 18 37 32 20 14 47 34 59 45 13 11 38 31 56 45
39 29 267 257 317 315 19 22 52 65 75 95 23 30 44 57 49 58 4 2 7 10 7 17 0 7
3 15 8 17 4 2 20 23 36 48 16 25 41 63 56 85 77 114 239 466 265 575 2 8 14
49 25 90 25 86 66 281 75 355 3 28 9 68 13 90 3 22 6 144 6 270 0 208 -3 256
-20 375 -3 19 -7 49 -9 65 -3 17 -7 41 -10 55 -3 14 -7 34 -9 45 -18 92 -91
345 -116 400 -5 11 -21 49 -36 85 -35 87 -141 299 -167 334 -4 6 -30 47 -58
91 -145 226 -340 437 -590 639 -9 7 -45 33 -80 57 -35 24 -66 46 -69 50 -5 5
-92 59 -150 92 -75 43 -269 135 -345 164 -121 46 -241 85 -230 75z"/>
<path d="M2570 4639 c-40 -25 -60 -58 -62 -107 -5 -127 164 -177 232 -67 41
66 4 166 -68 184 -50 12 -67 11 -102 -10z"/>
<path d="M2572 3484 c-37 -22 -66 -67 -67 -104 -1 -22 22 -79 39 -96 44 -43
124 -47 168 -7 82 74 49 197 -59 221 -36 8 -47 6 -81 -14z"/>
<path d="M2567 2328 c-64 -38 -79 -135 -30 -191 83 -93 231 -27 218 99 -9 94
-105 141 -188 92z"/>
</g>
</svg>
